<svg width="16" height="16" viewBox="0 0 16 16" fill="none" xmlns="http://www.w3.org/2000/svg">
<path d="M15.2527 13.1759C15.8665 13.7897 15.8665 14.7841 15.2527 15.398C14.9482 15.7049 14.5455 15.8571 14.1429 15.8571C13.7402 15.8571 13.3385 15.7037 13.0321 15.3967L7.85714 10.2245L2.68272 15.3955C2.3758 15.7049 1.97362 15.8571 1.57143 15.8571C1.16924 15.8571 0.767545 15.7049 0.460379 15.3955C-0.15346 14.7817 -0.15346 13.7872 0.460379 13.1734L5.63627 7.99752L0.460379 2.82408C-0.15346 2.21024 -0.15346 1.21582 0.460379 0.601981C1.07422 -0.0118583 2.06864 -0.0118583 2.68248 0.601981L7.85714 5.78033L13.033 0.604437C13.6469 -0.00940275 14.6413 -0.00940275 15.2551 0.604437C15.869 1.21828 15.869 2.2127 15.2551 2.82653L10.0792 8.00243L15.2527 13.1759Z" fill="#E43C04"/>
</svg>
