<svg width="86" height="28" viewBox="0 0 86 28" fill="none" xmlns="http://www.w3.org/2000/svg">
<path d="M8.064 27.396C7.08 27.396 6.108 27.264 5.148 27C4.212 26.736 3.348 26.376 2.556 25.92C1.764 25.44 1.08 24.864 0.504 24.192L3.312 21.348C3.912 22.02 4.608 22.524 5.4 22.86C6.192 23.196 7.068 23.364 8.028 23.364C8.796 23.364 9.372 23.256 9.756 23.04C10.164 22.824 10.368 22.5 10.368 22.068C10.368 21.588 10.152 21.216 9.72 20.952C9.312 20.688 8.772 20.472 8.1 20.304C7.428 20.112 6.72 19.908 5.976 19.692C5.256 19.452 4.56 19.152 3.888 18.792C3.216 18.408 2.664 17.892 2.232 17.244C1.824 16.572 1.62 15.708 1.62 14.652C1.62 13.548 1.884 12.588 2.412 11.772C2.964 10.956 3.744 10.32 4.752 9.864C5.76 9.408 6.948 9.18 8.316 9.18C9.756 9.18 11.052 9.432 12.204 9.936C13.38 10.44 14.352 11.196 15.12 12.204L12.276 15.048C11.748 14.4 11.148 13.932 10.476 13.644C9.828 13.356 9.12 13.212 8.352 13.212C7.656 13.212 7.116 13.32 6.732 13.536C6.372 13.752 6.192 14.052 6.192 14.436C6.192 14.868 6.396 15.204 6.804 15.444C7.236 15.684 7.788 15.9 8.46 16.092C9.132 16.26 9.828 16.464 10.548 16.704C11.292 16.92 11.988 17.232 12.636 17.64C13.308 18.048 13.848 18.588 14.256 19.26C14.688 19.932 14.904 20.796 14.904 21.852C14.904 23.556 14.292 24.912 13.068 25.92C11.844 26.904 10.176 27.396 8.064 27.396ZM20.6401 27V2.376H25.3561V27H20.6401ZM16.5721 13.752V9.612H29.4241V13.752H16.5721ZM39.8264 27.36C38.0744 27.36 36.4904 26.964 35.0744 26.172C33.6824 25.356 32.5664 24.264 31.7264 22.896C30.9104 21.504 30.5024 19.956 30.5024 18.252C30.5024 16.548 30.9104 15.024 31.7264 13.68C32.5424 12.312 33.6584 11.232 35.0744 10.44C36.4904 9.624 38.0624 9.216 39.7904 9.216C41.5664 9.216 43.1504 9.624 44.5424 10.44C45.9584 11.232 47.0744 12.312 47.8904 13.68C48.7064 15.024 49.1144 16.548 49.1144 18.252C49.1144 19.956 48.7064 21.504 47.8904 22.896C47.0744 24.264 45.9584 25.356 44.5424 26.172C43.1504 26.964 41.5784 27.36 39.8264 27.36ZM39.7904 22.968C40.6784 22.968 41.4584 22.776 42.1304 22.392C42.8264 21.984 43.3544 21.432 43.7144 20.736C44.0984 20.016 44.2904 19.2 44.2904 18.288C44.2904 17.376 44.0984 16.572 43.7144 15.876C43.3304 15.18 42.8024 14.64 42.1304 14.256C41.4584 13.848 40.6784 13.644 39.7904 13.644C38.9264 13.644 38.1584 13.848 37.4864 14.256C36.8144 14.64 36.2864 15.18 35.9024 15.876C35.5184 16.572 35.3264 17.376 35.3264 18.288C35.3264 19.2 35.5184 20.016 35.9024 20.736C36.2864 21.432 36.8144 21.984 37.4864 22.392C38.1584 22.776 38.9264 22.968 39.7904 22.968ZM63.2385 27L56.5065 18.036L63.2025 9.612H68.6385L60.7905 19.116L60.9705 16.812L68.9985 27H63.2385ZM52.1505 27V0.971998H56.8665V27H52.1505ZM70.5372 27V9.612H75.2892V27H70.5372ZM72.9132 6.804C72.1452 6.804 71.5092 6.552 71.0052 6.048C70.5012 5.52 70.2492 4.872 70.2492 4.104C70.2492 3.36 70.5012 2.724 71.0052 2.196C71.5092 1.668 72.1452 1.404 72.9132 1.404C73.7052 1.404 74.3412 1.668 74.8212 2.196C75.3252 2.724 75.5772 3.36 75.5772 4.104C75.5772 4.872 75.3252 5.52 74.8212 6.048C74.3412 6.552 73.7052 6.804 72.9132 6.804ZM82.7069 27.36C81.8429 27.36 81.1349 27.072 80.5829 26.496C80.0309 25.92 79.7549 25.212 79.7549 24.372C79.7549 23.532 80.0309 22.824 80.5829 22.248C81.1349 21.672 81.8429 21.384 82.7069 21.384C83.5469 21.384 84.2429 21.672 84.7949 22.248C85.3469 22.824 85.6229 23.532 85.6229 24.372C85.6229 25.212 85.3469 25.92 84.7949 26.496C84.2429 27.072 83.5469 27.36 82.7069 27.36Z" fill="black"/>
</svg>
