<svg width="60" height="60" viewBox="0 0 60 60" fill="none" xmlns="http://www.w3.org/2000/svg">
<rect width="60" height="60" rx="30" fill="#FF7F00"/>
<path d="M28.3 45.72C26.62 45.72 25.14 45.4267 23.86 44.84C22.58 44.2533 21.5933 43.44 20.9 42.4C20.2067 41.3333 19.86 40.1067 19.86 38.72C19.86 37.5467 20.1 36.48 20.58 35.52C21.0867 34.56 21.7533 33.8 22.58 33.24C23.4333 32.68 24.3667 32.4 25.38 32.4C26.3133 32.4 27.1 32.64 27.74 33.12C28.38 33.5733 28.78 34.2133 28.94 35.04C27.5533 35.04 26.4467 35.4133 25.62 36.16C24.7933 36.88 24.38 37.8667 24.38 39.12C24.38 40.2667 24.7267 41.1867 25.42 41.88C26.1133 42.5733 27.0333 42.92 28.18 42.92C29.5933 42.92 30.7533 42.4533 31.66 41.52C32.5933 40.56 33.06 39.36 33.06 37.92C33.06 36.6667 32.7133 35.48 32.02 34.36C31.3267 33.24 30.2867 31.88 28.9 30.28C27.46 28.6267 26.3667 27.2133 25.62 26.04C24.9 24.84 24.54 23.5333 24.54 22.12C24.54 20.7333 24.9267 19.4933 25.7 18.4C26.4733 17.28 27.54 16.4 28.9 15.76C30.26 15.12 31.7933 14.8 33.5 14.8C35.66 14.8 37.38 15.3067 38.66 16.32C39.9667 17.3333 40.62 18.6933 40.62 20.4C40.62 21.52 40.34 22.4267 39.78 23.12C39.22 23.8133 38.4867 24.16 37.58 24.16C36.5667 24.16 35.7533 23.7467 35.14 22.92C35.6467 22.5467 36.0467 22.0533 36.34 21.44C36.6333 20.8267 36.78 20.1867 36.78 19.52C36.78 18.6667 36.5267 17.9867 36.02 17.48C35.5133 16.9733 34.82 16.72 33.94 16.72C32.8733 16.72 31.9933 17.1067 31.3 17.88C30.6333 18.6267 30.3 19.5867 30.3 20.76C30.3 21.8267 30.6067 22.8267 31.22 23.76C31.8333 24.6667 32.7933 25.84 34.1 27.28C35.1667 28.4267 36.02 29.4133 36.66 30.24C37.3267 31.0667 37.8867 32.0267 38.34 33.12C38.82 34.1867 39.06 35.3467 39.06 36.6C39.06 38.3067 38.58 39.8533 37.62 41.24C36.6867 42.6267 35.3933 43.72 33.74 44.52C32.1133 45.32 30.3 45.72 28.3 45.72Z" fill="white"/>
</svg>
