<svg width="145" height="48" viewBox="0 0 145 48" fill="none" xmlns="http://www.w3.org/2000/svg">
<path d="M139.72 38.5201C133.54 35.1601 130.66 37.9601 128.4 35.1601C126.14 32.3601 134.63 24.9701 117.65 17.6201C117.65 17.6201 116.56 1.77006 93.3099 1.20006C70.0599 0.630057 76.3099 17.0201 70.1099 20.9801C63.9099 24.9401 62.1899 18.7201 55.9899 22.6801C49.7899 26.6401 52.5899 34.5701 47.4899 35.6801C42.3899 36.7901 35.6099 30.5801 29.3799 34.5901C23.1499 38.6001 23.1599 41.9501 20.3799 41.9501C17.5999 41.9501 11.8899 39.6901 8.49989 41.9501C5.10989 44.2101 1.13989 47.0401 1.13989 47.0401H144.24C144.24 47.0401 146 41.9201 139.72 38.5201Z" stroke="#263238" stroke-linecap="round" stroke-linejoin="round"/>
<path d="M55 36.25C54.1865 36.7101 53.341 37.1111 52.47 37.45" stroke="#263238" stroke-linecap="round" stroke-linejoin="round"/>
<path d="M85.6398 9.77002C84.234 10.4002 83 11.3584 82.0412 12.5643C81.0824 13.7701 80.427 15.1884 80.1298 16.7C79.0398 21.88 76.6698 25.32 73.9098 25.7C71.1498 26.08 60.7598 24.99 59.0598 28.78C58.5932 29.8975 58.2576 31.0653 58.0598 32.26" stroke="#263238" stroke-linecap="round" stroke-linejoin="round"/>
</svg>
