<svg width="500" height="500" viewBox="0 0 500 500" fill="none" xmlns="http://www.w3.org/2000/svg">
<path d="M249.88 451.37C366.274 451.37 460.63 427.543 460.63 398.15C460.63 368.758 366.274 344.93 249.88 344.93C133.486 344.93 39.1299 368.758 39.1299 398.15C39.1299 427.543 133.486 451.37 249.88 451.37Z" fill="#FF7F00"/>
<path opacity="0.5" d="M249.88 451.37C366.274 451.37 460.63 427.543 460.63 398.15C460.63 368.758 366.274 344.93 249.88 344.93C133.486 344.93 39.1299 368.758 39.1299 398.15C39.1299 427.543 133.486 451.37 249.88 451.37Z" fill="white"/>
<path d="M382.3 140.75V274.17L377.2 273.54V144.93C377.198 143.701 376.923 142.487 376.396 141.377C375.869 140.267 375.101 139.288 374.15 138.51C366.7 132.45 347.66 117.78 340.96 120.64C334.68 123.32 306.82 214.81 293.16 260.79C288.55 276.29 285.56 286.62 285.56 286.62L278.95 287.8C278.95 287.8 281.95 276.51 286.63 259.67C299.93 211.85 326.85 119.38 337.4 114.59C337.599 114.499 337.812 114.441 338.03 114.42C341.03 114.13 344.89 115.16 349.03 116.95C350.22 117.46 351.44 118.03 352.68 118.66C354.68 119.66 356.76 120.81 358.8 122.03C359.89 122.68 360.98 123.34 362.06 124.03C364.06 125.29 365.99 126.58 367.84 127.85L369.94 129.31C371.89 130.71 373.71 132.04 375.31 133.24C376.91 134.44 378.06 135.34 379.12 136.17L380.6 137.34C381.077 137.718 381.469 138.194 381.748 138.735C382.028 139.277 382.188 139.871 382.22 140.48C382.256 140.567 382.283 140.657 382.3 140.75V140.75Z" fill="#FF7F00" stroke="#263238" stroke-miterlimit="10"/>
<path d="M387.68 110.72L349.09 116.94L339.09 118.55C338.95 118.559 338.81 118.559 338.67 118.55C338.129 118.57 337.598 118.403 337.166 118.077C336.734 117.751 336.428 117.286 336.3 116.76C336.224 116.326 336.286 115.879 336.478 115.482C336.67 115.086 336.982 114.759 337.37 114.55V114.55C337.63 114.401 337.914 114.3 338.21 114.25L386.78 106.43C387.382 106.305 388.009 106.418 388.531 106.744C389.052 107.07 389.428 107.584 389.58 108.18C389.629 108.472 389.619 108.772 389.549 109.06C389.479 109.348 389.352 109.62 389.174 109.857C388.997 110.095 388.772 110.294 388.516 110.442C388.259 110.59 387.974 110.685 387.68 110.72Z" fill="#FF7F00" stroke="#263238" stroke-miterlimit="10"/>
<path d="M400.82 114.78L358.82 122.02L354.14 122.82C354.003 122.83 353.866 122.83 353.73 122.82C353.206 122.817 352.699 122.635 352.293 122.304C351.887 121.973 351.607 121.513 351.5 121C351.414 120.523 351.489 120.032 351.714 119.602C351.938 119.173 352.299 118.831 352.74 118.63C352.939 118.53 353.151 118.46 353.37 118.42L400 110.42C400.592 110.305 401.206 110.428 401.708 110.764C402.21 111.099 402.559 111.619 402.68 112.21C402.73 112.501 402.721 112.799 402.654 113.087C402.587 113.375 402.463 113.646 402.29 113.886C402.117 114.125 401.898 114.328 401.645 114.481C401.393 114.635 401.112 114.736 400.82 114.78Z" fill="#FF7F00" stroke="#263238" stroke-miterlimit="10"/>
<path d="M410.72 120L367.9 127.82L363.09 128.7C362.954 128.714 362.816 128.714 362.68 128.7C362.119 128.697 361.577 128.494 361.151 128.127C360.726 127.761 360.446 127.254 360.36 126.7C360.245 126.102 360.363 125.482 360.69 124.969C361.018 124.456 361.529 124.087 362.12 123.94H362.26L409.89 115.24C410.197 115.187 410.512 115.195 410.816 115.264C411.121 115.332 411.408 115.461 411.663 115.641C411.917 115.821 412.134 116.05 412.3 116.314C412.466 116.578 412.578 116.872 412.63 117.18C412.75 117.807 412.617 118.456 412.259 118.985C411.9 119.514 411.347 119.879 410.72 120V120Z" fill="#FF7F00" stroke="#263238" stroke-miterlimit="10"/>
<path d="M419.93 125.23L375.37 133.23L371.15 133.98C371.007 133.994 370.863 133.994 370.72 133.98C370.147 133.972 369.595 133.761 369.163 133.385C368.731 133.009 368.446 132.491 368.359 131.925C368.273 131.358 368.39 130.779 368.691 130.291C368.991 129.803 369.455 129.438 370 129.26C370.097 129.226 370.198 129.202 370.3 129.19L419.08 120.44C419.399 120.368 419.729 120.362 420.05 120.421C420.371 120.481 420.677 120.605 420.949 120.785C421.222 120.966 421.454 121.201 421.634 121.474C421.813 121.747 421.935 122.054 421.992 122.375C422.05 122.697 422.041 123.027 421.968 123.346C421.894 123.664 421.757 123.964 421.564 124.228C421.371 124.492 421.127 124.714 420.846 124.881C420.566 125.048 420.254 125.156 419.93 125.2V125.23Z" fill="#FF7F00" stroke="#263238" stroke-miterlimit="10"/>
<path d="M430.39 131.52C430.079 131.783 429.702 131.956 429.3 132.02L382.3 140.46L380.55 140.77C380.407 140.78 380.263 140.78 380.12 140.77C379.563 140.765 379.025 140.569 378.596 140.213C378.167 139.858 377.874 139.366 377.766 138.819C377.658 138.273 377.741 137.706 378.003 137.214C378.264 136.723 378.687 136.336 379.2 136.12C379.357 136.052 379.521 136.005 379.69 135.98L428.47 127.23C428.932 127.145 429.409 127.201 429.84 127.39C430.224 127.552 430.56 127.811 430.814 128.142C431.068 128.473 431.232 128.865 431.289 129.278C431.347 129.691 431.296 130.112 431.142 130.5C430.988 130.888 430.735 131.229 430.41 131.49L430.39 131.52Z" fill="#FF7F00" stroke="#263238" stroke-miterlimit="10"/>
<path opacity="0.3" d="M429.3 132L382.3 140.44C382.31 140.536 382.31 140.634 382.3 140.73V211.73L377.2 218.89V144.93C377.198 143.701 376.923 142.488 376.396 141.377C375.868 140.267 375.101 139.288 374.15 138.51C366.7 132.45 347.66 117.78 340.96 120.64C334.68 123.32 306.82 214.81 293.16 260.79L287.48 261.79L286.63 259.65C299.93 211.83 326.85 119.36 337.4 114.57C337.66 114.421 337.944 114.32 338.24 114.27L386.81 106.45C387.412 106.325 388.039 106.438 388.561 106.764C389.082 107.09 389.458 107.604 389.61 108.2C389.655 108.494 389.639 108.794 389.564 109.082C389.49 109.37 389.357 109.639 389.174 109.874C388.992 110.109 388.764 110.304 388.503 110.448C388.243 110.592 387.956 110.681 387.66 110.71L349.07 116.93C350.26 117.44 351.48 118.01 352.72 118.64C352.919 118.54 353.131 118.47 353.35 118.43L399.98 110.43C400.572 110.315 401.186 110.439 401.688 110.774C402.19 111.109 402.539 111.629 402.66 112.22C402.711 112.512 402.703 112.811 402.637 113.1C402.571 113.389 402.448 113.662 402.274 113.902C402.101 114.143 401.881 114.346 401.628 114.5C401.375 114.654 401.093 114.756 400.8 114.8L358.8 122.04C359.89 122.69 360.98 123.35 362.06 124.04H362.2L409.83 115.34C410.137 115.287 410.452 115.295 410.756 115.364C411.06 115.433 411.348 115.561 411.603 115.741C411.857 115.921 412.074 116.15 412.24 116.414C412.406 116.678 412.518 116.972 412.57 117.28C412.684 117.904 412.548 118.548 412.19 119.072C411.833 119.597 411.283 119.959 410.66 120.08L367.84 127.9L369.94 129.36C370.037 129.326 370.138 129.303 370.24 129.29L419.02 120.54C419.339 120.468 419.669 120.462 419.99 120.522C420.311 120.581 420.617 120.705 420.89 120.886C421.162 121.067 421.394 121.301 421.574 121.574C421.753 121.847 421.875 122.154 421.932 122.476C421.99 122.797 421.981 123.127 421.908 123.446C421.834 123.764 421.697 124.064 421.504 124.328C421.312 124.592 421.067 124.814 420.786 124.981C420.506 125.148 420.194 125.257 419.87 125.3L375.31 133.3C376.78 134.4 378.06 135.4 379.12 136.23C379.277 136.163 379.441 136.116 379.61 136.09L428.39 127.34C428.852 127.256 429.329 127.311 429.76 127.5C429.98 128.91 430.16 130.28 430.33 131.6C430.026 131.818 429.671 131.955 429.3 132V132Z" fill="black"/>
<path d="M447.41 326.06C447.41 326.06 440.11 313.3 423.09 317.57C415.72 318.57 409.88 332.81 409.88 350.2C409.88 368.2 416.16 382.85 423.88 382.89L423.94 383.17C423.94 383.17 437.28 386.17 445.15 379.43C453.02 372.69 447.41 326.06 447.41 326.06Z" fill="#263238"/>
<path d="M440.94 380.83C447.937 380.83 453.61 367.644 453.61 351.38C453.61 335.115 447.937 321.93 440.94 321.93C433.943 321.93 428.27 335.115 428.27 351.38C428.27 367.644 433.943 380.83 440.94 380.83Z" fill="#263238"/>
<path opacity="0.3" d="M440.94 380.83C447.937 380.83 453.61 367.644 453.61 351.38C453.61 335.115 447.937 321.93 440.94 321.93C433.943 321.93 428.27 335.115 428.27 351.38C428.27 367.644 433.943 380.83 440.94 380.83Z" fill="black"/>
<path d="M443.78 349.48C443.78 358.78 440.61 366.31 436.7 366.31C436.211 366.309 435.728 366.196 435.29 365.98V365.98C432.07 364.4 429.64 357.62 429.64 349.48C429.64 341.34 432.07 334.57 435.29 332.99C435.728 332.771 436.21 332.655 436.7 332.65C440.61 332.65 443.78 340.19 443.78 349.48Z" fill="white" stroke="#263238" stroke-miterlimit="10"/>
<path d="M440.94 349.48C440.94 357.62 438.52 364.4 435.29 365.98C432.07 364.4 429.64 357.62 429.64 349.48C429.64 341.34 432.07 334.57 435.29 332.99C438.52 334.57 440.94 341.35 440.94 349.48Z" fill="white" stroke="#263238" stroke-miterlimit="10"/>
<path d="M451.14 304.68C451.14 310.81 451.79 316.01 447.02 318.54C442.25 321.07 433.78 325.05 430.02 344.05C426.65 361.05 430.46 366.75 424.74 368.3C420.29 369.52 386.49 377.72 371.85 381.3L365.12 382.93L328.63 358.49L327.74 357.89L323.69 355.17L327.74 336.27L328.21 334.07L347.43 307.16L380.43 273.9L396.43 264.14C396.43 264.14 434.32 264.61 436.34 266.86C438.36 269.11 438.89 270.33 439.87 279.46C440.85 288.59 439.69 292.21 445.87 294C451.22 295.53 451.25 297.86 451.17 302.44C451.16 303.12 451.14 303.87 451.14 304.68Z" fill="#FF7F00"/>
<path opacity="0.3" d="M429.64 265.5C429.64 265.5 429.32 265.74 429.31 265.77C426.52 268 413.15 274.51 405.05 285.99C396.95 297.47 388.95 312.17 389.12 320.86C390.569 321.826 391.598 323.305 392 325V330.88C376.8 344.64 366 356.66 366 356.66L328.63 358.46H327.74V334.7L328.21 334.04L347.43 307.13L380.43 273.87L396.43 264.11C396.43 264.11 418.23 264.39 429.64 265.5Z" fill="black"/>
<path d="M370.16 381.62L423.44 368.79C424.731 368.466 425.881 367.733 426.72 366.7C427.558 365.667 428.039 364.39 428.09 363.06C428.44 354.39 429.84 335.77 435.58 327.86C439.74 322.11 444.01 319.62 447.02 318.54C448.221 318.115 449.261 317.328 449.997 316.287C450.733 315.247 451.129 314.004 451.13 312.73V300.06C451.132 298.626 450.634 297.236 449.721 296.129C448.809 295.023 447.538 294.27 446.13 294H445.92C444.616 293.758 443.426 293.102 442.525 292.129C441.624 291.156 441.061 289.918 440.92 288.6L439 271.27C438.848 269.843 438.202 268.515 437.174 267.514C436.146 266.513 434.8 265.903 433.37 265.79C422.44 264.93 396.37 263.34 379.85 266.23" stroke="#263238" stroke-linecap="round" stroke-linejoin="round"/>
<path d="M421.91 307.13C426.741 303.722 431.748 300.571 436.91 297.69" stroke="#263238" stroke-linecap="round" stroke-linejoin="round"/>
<path d="M367.3 354.52C381.398 340.144 396.409 326.693 412.24 314.25" stroke="#263238" stroke-linecap="round" stroke-linejoin="round"/>
<path d="M370.93 342.06C370.93 342.06 356.25 314.79 330.01 333.29" stroke="#263238" stroke-linecap="round" stroke-linejoin="round"/>
<path d="M391.94 331.12C391.94 331.12 393.23 321.49 386.06 318.91C378.89 316.33 350.47 317.35 350.47 317.35" stroke="#263238" stroke-linecap="round" stroke-linejoin="round"/>
<path d="M389.12 320.86C389.12 320.86 390.39 290.86 424.73 269.24" stroke="#263238" stroke-linecap="round" stroke-linejoin="round"/>
<path d="M366.55 350.75C366.55 350.75 358.4 336.49 339.37 341.26C331.14 342.42 324.61 358.26 324.61 377.72C324.61 397.87 331.61 414.21 340.3 414.25L340.36 414.57C340.36 414.57 355.28 417.95 364.08 410.39C372.88 402.83 366.55 350.75 366.55 350.75Z" fill="#263238"/>
<path d="M359.32 411.96C367.14 411.96 373.48 397.225 373.48 379.05C373.48 360.874 367.14 346.14 359.32 346.14C351.5 346.14 345.16 360.874 345.16 379.05C345.16 397.225 351.5 411.96 359.32 411.96Z" fill="#222221"/>
<path opacity="0.3" d="M359.32 411.96C367.14 411.96 373.48 397.225 373.48 379.05C373.48 360.874 367.14 346.14 359.32 346.14C351.5 346.14 345.16 360.874 345.16 379.05C345.16 397.225 351.5 411.96 359.32 411.96Z" fill="black"/>
<path d="M362.5 376.92C362.5 387.31 358.95 395.73 354.58 395.73C354.031 395.726 353.49 395.596 353 395.35V395.35C349.4 393.59 346.69 386.01 346.69 376.92C346.69 367.83 349.4 360.25 353 358.49C353.49 358.243 354.031 358.113 354.58 358.11C359 358.11 362.5 366.54 362.5 376.92Z" fill="white" stroke="#263238" stroke-miterlimit="10"/>
<path d="M359.32 376.92C359.32 386.01 356.61 393.59 353 395.35C349.4 393.59 346.69 386.01 346.69 376.92C346.69 367.83 349.4 360.25 353 358.49C356.61 360.25 359.32 367.83 359.32 376.92Z" fill="white" stroke="#263238" stroke-miterlimit="10"/>
<path opacity="0.1" d="M447 318.54C442.22 321.08 433.76 325.05 430 344.05C426.63 361.05 430.44 366.75 424.72 368.3C420.27 369.52 386.47 377.72 371.83 381.3L370.92 373.78L418.69 363.4C418.69 363.4 416.98 308.16 451.16 302.4C451.16 303.11 451.16 303.86 451.16 304.67C451.14 310.81 451.79 316 447 318.54Z" fill="black"/>
<path opacity="0.1" d="M389.12 318.88C389.12 318.88 395.44 323.23 398.77 319.88C402.1 316.53 424.77 301.04 435.28 298.55C435.28 298.55 400.87 322.55 389.77 332.9C389.77 332.9 395.49 329.85 389.77 321.9L389.12 318.88Z" fill="black"/>
<path d="M322.47 224.18C322.47 224.18 324.73 249.25 336.47 255.53C342.608 255.954 348.728 254.481 354 251.31C358.07 248.77 366.25 224.8 367 222.48L349.25 219.83L345.85 243.76C345.85 243.76 338.08 236.19 333.57 228.59C334.15 225.77 331.48 224.1 330.74 221.66C327.32 210.59 322.47 224.18 322.47 224.18Z" fill="white" stroke="#263238" stroke-linecap="round" stroke-linejoin="round"/>
<path d="M388 186.94C388 186.94 393 186.94 395.08 191.4C395.08 191.4 413.97 199.16 417.62 204.58C421.27 210 419.62 231.49 415.09 240.75C412.267 246.377 407.566 250.841 401.8 253.37L400 261.52L360.73 261.11L356.89 236.46L357.04 224.91L349.1 220.47C349.1 220.47 351.45 202.37 354.83 200.67C358.21 198.97 373 192.9 373 192.9C373 192.9 374 189.9 376 189.05C378 188.2 388 186.94 388 186.94Z" fill="#FF7F00"/>
<path d="M416.32 236.69C416.32 236.69 411.5 254 408.32 257.38C408.32 257.38 399.77 258.06 393.32 256.48C386.87 254.9 360.32 244.13 357.13 240.83C353.94 237.53 359.95 233.49 359.95 233.49C364.162 234.984 368.455 236.236 372.81 237.24C380.39 239.02 393.63 240.24 397.35 242.45L400.41 232.99C403.171 232.402 406.027 232.429 408.777 233.069C411.526 233.708 414.101 234.944 416.32 236.69V236.69Z" fill="white"/>
<path d="M367 159.06C367 159.06 366.32 164.38 368.38 174.46C370.44 184.54 372.11 187.17 374.99 186.87C377.87 186.57 377.87 188.2 377.87 188.2V194.5C377.87 194.5 380.74 205.81 382.49 206.45C384.24 207.09 389.37 197.81 390.62 195.18C391.87 192.55 391.88 180.86 391.88 180.86L392.47 171.65C393.573 171.443 394.55 170.809 395.189 169.886C395.827 168.963 396.076 167.825 395.88 166.72C395.25 162.58 390.49 157.09 390.49 157.09C390.49 157.09 375.53 153.52 367 159.06Z" fill="white"/>
<path d="M327.73 255.53C327.73 255.53 349.73 256.85 351.98 259.34C354.23 261.83 353.72 267.8 353.72 267.8L358.26 271.03L350.47 326.85C350.47 326.85 336 323.1 327.73 338.09V255.53Z" fill="#263238"/>
<path d="M372.52 165.85C372.749 167.005 372.705 168.199 372.391 169.334C372.077 170.47 371.501 171.516 370.71 172.39C370.601 172.49 370.509 172.608 370.44 172.74C370.368 172.954 370.366 173.186 370.435 173.401C370.503 173.617 370.638 173.805 370.82 173.94C371.053 174.147 371.329 174.3 371.629 174.387C371.928 174.474 372.244 174.493 372.552 174.442C372.859 174.391 373.152 174.272 373.408 174.093C373.664 173.915 373.876 173.681 374.03 173.41" stroke="#263238" stroke-linecap="round" stroke-linejoin="round"/>
<path d="M372.2 163.15C371.946 162.947 371.655 162.796 371.343 162.707C371.031 162.617 370.704 162.59 370.382 162.627C370.059 162.664 369.747 162.765 369.464 162.923C369.18 163.082 368.931 163.295 368.73 163.55" stroke="#263238" stroke-linecap="round" stroke-linejoin="round"/>
<path d="M376.63 162.61C377.37 162.262 378.214 162.207 378.993 162.456C379.772 162.704 380.428 163.238 380.83 163.95" stroke="#263238" stroke-linecap="round" stroke-linejoin="round"/>
<path d="M371.28 166.93C371.28 167.8 370.9 168.5 370.43 168.5C369.96 168.5 369.58 167.8 369.58 166.93C369.58 166.06 369.96 165.35 370.43 165.35C370.9 165.35 371.28 166.06 371.28 166.93Z" fill="#263238"/>
<path d="M377.68 168.51C378.149 168.51 378.53 167.802 378.53 166.93C378.53 166.057 378.149 165.35 377.68 165.35C377.21 165.35 376.83 166.057 376.83 166.93C376.83 167.802 377.21 168.51 377.68 168.51Z" fill="#263238"/>
<path d="M373.28 177.45C373.28 177.45 378.33 178.35 379.68 175.55" stroke="#263238" stroke-linecap="round" stroke-linejoin="round"/>
<path d="M369.58 153C369.58 153 365.63 159.24 367.58 170.13C369.53 181.02 371.63 186.13 375.03 186.84C378.43 187.55 388.03 182.07 390.25 179.72C392.47 177.37 392.51 171.62 392.51 171.62" stroke="#263238" stroke-linecap="round" stroke-linejoin="round"/>
<path d="M389.67 166.72C389.67 166.72 390.36 162.88 392.23 162.24C394.1 161.6 395.91 164.72 395.91 166.72C395.91 168.72 394.17 172.12 391.8 171.65" stroke="#263238" stroke-linecap="round" stroke-linejoin="round"/>
<path d="M391.69 162.53C390.06 163.486 388.199 163.977 386.31 163.95C383.77 163.68 380.24 159.2 375.31 159.6C370.38 160 366.21 163.35 364.6 162.01C362.99 160.67 365.41 157.06 365.41 157.06L366.54 155.63C366.54 155.63 366.24 152.57 366.24 150.02C366.24 147.47 370.33 143.54 378.76 143.02C387.19 142.5 390.94 145.76 392.3 147.26C392.62 147.62 395.3 150.64 395.94 153.48C396.64 156.7 395.41 161.36 395.11 163.99C393.81 161.34 391.69 162.53 391.69 162.53Z" fill="#263238"/>
<path d="M369.58 155.77C369.58 155.77 376.53 151.63 384.58 157.49" stroke="white" stroke-linecap="round" stroke-linejoin="round"/>
<path d="M377.9 186.58V194.5C377.9 194.5 380.47 205.68 382.52 206.45C384.57 207.22 389.46 198.1 390.52 195.66C391.07 194.35 391.32 191.29 391.44 188.72L392.53 171.65" stroke="#263238" stroke-linecap="round" stroke-linejoin="round"/>
<path d="M377.68 188.72C377.68 188.72 374.17 188.85 373.78 191.16C373.39 193.47 373.66 203.49 372.89 205.03C372.12 206.57 370.83 207.6 371.34 208.12C371.85 208.64 378.86 202.77 380.69 203.71" stroke="#263238" stroke-linecap="round" stroke-linejoin="round"/>
<path d="M385.93 203.67C387.993 204.498 389.885 205.702 391.51 207.22C393.83 209.53 395.63 207.05 394.98 206.49C394.33 205.93 393.44 204.39 394.47 200.28C395.5 196.17 395.27 188.73 391.47 187.28" stroke="#263238" stroke-linecap="round" stroke-linejoin="round"/>
<path d="M349 220.9C350.47 212.82 352.6 202.11 354.81 200.67C358 198.6 373.67 192.86 373.67 192.86" stroke="#263238" stroke-linecap="round" stroke-linejoin="round"/>
<path d="M355.33 226L360.13 259.25L399.95 261.52L401.35 257.66" stroke="#263238" stroke-linecap="round" stroke-linejoin="round"/>
<path d="M359.09 235.67L347.18 230.3" stroke="#222221" stroke-linecap="round" stroke-linejoin="round"/>
<path d="M354 239.43C351.413 232.231 346.482 226.111 340 222.05C333.61 218.2 326.68 217.36 320.47 219.69C314.26 222.02 309.58 227.2 307.3 234.3C306.74 236.063 306.342 237.874 306.11 239.71L310.9 240.35C311.084 238.798 311.419 237.267 311.9 235.78C313.72 230.12 317.35 226.01 322.15 224.21C323.892 223.554 325.738 223.215 327.6 223.21C331.104 223.269 334.526 224.29 337.49 226.16C340.176 227.806 342.547 229.92 344.49 232.4C346.574 235.018 348.228 237.952 349.39 241.09C351.799 247.187 352.091 253.917 350.22 260.2C348.4 265.86 344.77 269.97 339.97 271.77C335.943 273.207 331.516 273.039 327.61 271.3V276.46C329.836 277.2 332.165 277.581 334.51 277.59C336.952 277.589 339.374 277.148 341.66 276.29C347.87 273.96 352.55 268.77 354.83 261.67C355.802 258.583 356.295 255.366 356.29 252.13C356.289 247.794 355.513 243.493 354 239.43V239.43Z" fill="#263238"/>
<path d="M327.49 220.83C327.49 220.83 324.98 238.21 331.13 243.63C337.28 249.05 351.43 241.25 351.43 241.25L353.63 247.68C353.63 247.68 335.4 250.74 337.63 269.03L327.27 270.38V242.43L318.77 241.34C318.77 241.34 319.3 232.71 313.28 227.96C317.42 224.545 322.277 222.108 327.49 220.83V220.83Z" fill="#263238"/>
<path d="M357.61 241.78C367.61 245.29 377.85 252.14 386.92 254.91C397.51 258.14 407.68 257.83 408.29 257.38C411.229 251.602 413.658 245.579 415.55 239.38C419.55 225.75 421.79 209.26 417.65 204.55C412.24 198.4 395.11 191.37 395.11 191.37" stroke="#263238" stroke-linecap="round" stroke-linejoin="round"/>
<path d="M377.9 188.2C377.9 188.2 378.14 193.42 380.69 192.86C383.24 192.3 390.33 187.1 392.12 177.59C390.487 179.799 388.369 181.605 385.93 182.87C381.72 185.11 378.73 186.32 378.73 186.32L377.9 188.2Z" fill="#263238"/>
<path d="M358.43 230.22C357.94 228.28 357.06 226.1 355.24 225.65C354.83 225.557 354.409 225.523 353.99 225.55C350.44 225.63 346.69 226.89 344.64 229.79C344.322 230.185 344.127 230.665 344.08 231.17C344.067 231.424 344.141 231.674 344.29 231.88C344.439 232.086 344.655 232.234 344.9 232.3C345.255 232.317 345.605 232.218 345.9 232.02C347.264 231.181 348.725 230.509 350.25 230.02C351.121 229.74 352.059 229.74 352.93 230.02C353.1 230.24 353.38 230.89 353.55 231.11C350.69 231.29 345.86 233.03 344.74 235.92C344.632 236.144 344.6 236.397 344.65 236.64C344.84 237.31 345.8 237.28 346.48 237.11C348.904 236.507 351.372 236.092 353.86 235.87C352.94 236 352.04 236.39 351.13 236.53C349.49 236.76 347.64 237.14 346.8 238.53C346.716 238.649 346.659 238.785 346.633 238.928C346.607 239.072 346.613 239.219 346.65 239.36C346.78 239.71 347.21 239.85 347.59 239.9C348.845 239.938 350.102 239.851 351.34 239.64C351.962 239.54 352.599 239.59 353.197 239.786C353.796 239.983 354.339 240.32 354.78 240.77C354.85 241.87 354.83 242.69 354.9 243.77C355.743 243.398 356.496 242.847 357.107 242.157C357.718 241.467 358.173 240.652 358.44 239.77C359.184 237.209 359.307 234.508 358.8 231.89C358.7 231.42 358.58 230.83 358.43 230.22Z" fill="white" stroke="#263238" stroke-linecap="round" stroke-linejoin="round"/>
<path d="M397.36 242.45C397.36 242.45 401.62 232.99 401.36 224.53" stroke="#263238" stroke-linecap="round" stroke-linejoin="round"/>
<path d="M400.59 261.24C400.59 261.24 406.93 279.43 399.35 292.24C396.48 297.1 364.02 297.69 364.02 297.69L350.47 326.85L335.18 273.18L360.13 259.25L400.59 261.24Z" fill="#263238"/>
<path d="M362.85 296.09L393.77 297.69" stroke="#263238" stroke-linecap="round" stroke-linejoin="round"/>
<path d="M359.43 233C366.04 235.91 380.98 239.42 385.1 239.8C391.83 240.42 399.84 241.35 403.34 248.02" stroke="#263238" stroke-linecap="round" stroke-linejoin="round"/>
<path d="M400.42 233C400.42 233 407.57 231.09 416.32 236.7" stroke="#263238" stroke-linecap="round" stroke-linejoin="round"/>
<g opacity="0.2">
<path d="M373.64 265.589C368.18 267.249 360.16 269.859 351.82 273.179" stroke="white" stroke-linecap="round" stroke-linejoin="round"/>
<path d="M367.57 266.84L366.26 263.56" stroke="white" stroke-linecap="round" stroke-linejoin="round"/>
</g>
<path d="M357.61 227.89L356.38 216.16" stroke="#263238" stroke-linecap="round" stroke-linejoin="round"/>
<path d="M316.44 220.4C315.14 221.81 313.9 223.53 314.06 225.4C314.062 225.597 314.111 225.79 314.203 225.964C314.295 226.138 314.428 226.288 314.59 226.4C314.83 226.469 315.085 226.466 315.323 226.392C315.562 226.317 315.773 226.174 315.93 225.98C316.562 225.378 317.016 224.613 317.24 223.77C317.47 223 318.33 218.36 316.44 220.4Z" fill="white" stroke="#263238" stroke-linecap="round" stroke-linejoin="round"/>
<path d="M320.89 222C320.189 223.129 319.371 224.182 318.45 225.14C318.413 225.176 318.369 225.203 318.32 225.22C318.269 225.213 318.22 225.193 318.18 225.16C317.909 224.936 317.687 224.659 317.527 224.346C317.367 224.033 317.273 223.691 317.25 223.34C317.214 222.639 317.306 221.938 317.52 221.27C317.841 219.833 318.633 218.545 319.77 217.61C319.976 217.447 320.22 217.34 320.48 217.3C320.761 217.285 321.041 217.347 321.29 217.48C321.704 217.653 322.099 217.868 322.47 218.12C322.056 219.456 321.527 220.755 320.89 222V222Z" fill="white" stroke="#263238" stroke-linecap="round" stroke-linejoin="round"/>
<path d="M324.37 215.43C322.04 216.65 320.75 220.15 320.47 222.59C320.37 223.41 320.47 224.32 321.47 224.52C321.946 224.569 322.425 224.476 322.849 224.254C323.272 224.032 323.62 223.689 323.85 223.27C324.286 222.425 324.621 221.533 324.85 220.61C325.109 219.688 325.677 218.882 326.46 218.33C327.18 217.85 328.46 217.96 328.67 216.92C329.09 214.88 325.47 214.86 324.37 215.43Z" fill="white" stroke="#263238" stroke-linecap="round" stroke-linejoin="round"/>
<path d="M357.3 224.91L349.05 220.47" stroke="#263238" stroke-linecap="round" stroke-linejoin="round"/>
<path d="M324.39 76.0198V241.68L305.38 241.79L298.46 243.19V115.75L298.43 115.76H298.42L257.02 122.85L256.56 122.93L257.25 234.69L237.13 232.6V93.2798L242.33 91.4898L256.56 94.3698L256.65 94.3498L297.94 84.6598L297.99 84.6398L298.42 75.5198V75.4998L298.46 74.7198L305.38 72.5498L324.39 76.0198Z" fill="#FF7F00"/>
<path opacity="0.3" d="M298.42 115.76L257.69 122.74L257.02 122.85L256.65 94.3497L297.94 84.6597L298.36 112.06L298.42 115.76Z" fill="black"/>
<path opacity="0.2" d="M298.42 115.76L257.02 122.85L257.08 119.59L298.36 112.06L298.42 115.76Z" fill="black"/>
<path opacity="0.2" d="M242.33 91.4897V233.15L237.13 232.6V93.2797L242.33 91.4897Z" fill="black"/>
<path opacity="0.2" d="M305.38 72.5498V241.79L298.46 243.19L298.43 115.76L298.42 75.5198V75.4998L298.46 74.7198L305.38 72.5498Z" fill="black"/>
<path d="M324.39 242.6V76.0198L305.39 72.5498L298.46 74.7198V244.25" stroke="#263238" stroke-linecap="round" stroke-linejoin="round"/>
<path d="M305.39 72.5498V243.19" stroke="#263238" stroke-linecap="round" stroke-linejoin="round"/>
<path d="M257.25 236.34L256.55 94.3597L242.32 91.4897L237.13 93.2897V235.19" stroke="#263238" stroke-linecap="round" stroke-linejoin="round"/>
<path d="M242.32 91.4897V238.31" stroke="#263238" stroke-linecap="round" stroke-linejoin="round"/>
<path d="M256.55 94.36L298.46 84.71" stroke="#263238" stroke-linecap="round" stroke-linejoin="round"/>
<path d="M256.65 119.67L298.46 111.83" stroke="#263238" stroke-linecap="round" stroke-linejoin="round"/>
<path d="M257.02 122.85L298.46 115.75" stroke="#263238" stroke-linecap="round" stroke-linejoin="round"/>
<path d="M433.38 265.79V152.36C433.38 148.36 433.5 144.31 433.58 140.3C433.64 137.11 434.1 133.52 432.39 130.7C429.32 125.6 423.87 122.23 418.98 119.06C409.89 113.18 399.8 108.14 389.12 106.06C375.8 103.43 327.31 243.87 327.31 243.87L327.73 255.55C327.73 255.55 379.02 109.55 392.12 111.85C399.778 113.323 407.062 116.319 413.54 120.66C417.15 122.98 421.23 124.9 424.3 127.94C428.88 132.47 428.3 138.26 428.3 144.2V171.11C428.3 187.157 428.3 203.207 428.3 219.26V257.63C428.3 258.03 428.16 265.17 428.3 265.19L433.38 265.79Z" fill="#FF7F00" stroke="#263238" stroke-miterlimit="10"/>
<path d="M326.31 377.33V411.63L315.69 414.52L280.84 407.71L275 409.37V425.6L257.85 429.97L222.04 422.67L217.17 423.95V441.36L194.32 447.58L162.15 441.11V424.39L158.48 424.27L121.62 433.55L103.58 429.49V414.22L95.4899 413.37L63.8299 421.99L52.1099 418.97V386.9L194.32 381.94L202.92 381.64L326.31 377.33Z" fill="#FF7F00"/>
<path opacity="0.1" d="M326.31 377.33V411.63L315.69 414.52L280.84 407.71L275 409.37V425.6L257.85 429.97L222.04 422.67L217.17 423.95V441.36L194.32 447.58V381.94L202.92 381.64L326.31 377.33Z" fill="black"/>
<path opacity="0.3" d="M194.32 380.93V447.58L162.15 441.11V424.39L158.48 424.27L121.62 433.55L103.58 429.49V414.22L95.4899 413.37L63.8299 421.99L52.1099 418.97V369.19L194.32 380.93Z" fill="black"/>
<path opacity="0.3" d="M124.6 417.87V433.56L158.48 424.27L124.6 417.87Z" fill="black"/>
<path opacity="0.3" d="M257.85 413.24V429.97L222.04 422.67L257.85 413.24Z" fill="black"/>
<path opacity="0.3" d="M315.69 414.52V397.79L281.46 407.44L315.69 414.52Z" fill="black"/>
<path opacity="0.3" d="M66.0298 407.7L97.9098 413.38L66.0298 421.94V407.7Z" fill="black"/>
<path d="M327.73 242.47V382.15L194.32 411.25L46.1399 392.44V242.47L194.32 228.59L327.73 242.47Z" fill="white"/>
<path opacity="0.1" d="M179.46 246.03L195.03 244.91L209.18 246.03V253.86L195.03 252.68L179.46 254.18V246.03Z" fill="black"/>
<path d="M46.1399 242.47V392.44L194.32 411.24L327.73 382.14V242.47L194.32 228.59L46.1399 242.47Z" stroke="#263238" stroke-linecap="round" stroke-linejoin="round"/>
<path d="M194.32 447.58V411.24V228.59" stroke="#263238" stroke-linecap="round" stroke-linejoin="round"/>
<path d="M159.48 423.93L124.6 433.56L103.58 429.49V414.22L66.0299 407.7V421.94L52.1099 418.98V393.2" stroke="#263238" stroke-linecap="round" stroke-linejoin="round"/>
<path d="M66.2698 421.99L97.9098 413.38" stroke="#263238" stroke-linecap="round" stroke-linejoin="round"/>
<path d="M257.85 429.98V413.24L217.16 423.96V441.36L194.32 447.58L162.14 441.11V424.39L124.6 417.87V433.56" stroke="#263238" stroke-linecap="round" stroke-linejoin="round"/>
<path opacity="0.1" d="M194.32 228.59V411.25L46.1399 392.44V242.47L194.32 228.59Z" fill="black"/>
<path d="M222.04 422.67L257.85 429.88L275 425.6V409.37L315.69 397.79V414.53L317.54 414.02L326.31 411.63V382.45" stroke="#263238" stroke-linecap="round" stroke-linejoin="round"/>
<path d="M315.39 414.66L280.84 407.71" stroke="#263238" stroke-linecap="round" stroke-linejoin="round"/>
<path d="M46.1399 289.66L194.32 284.35L327.73 289.66" stroke="#263238" stroke-linecap="round" stroke-linejoin="round"/>
<path d="M46.1399 341.94L194.32 350.51L327.73 338.08" stroke="#263238" stroke-linecap="round" stroke-linejoin="round"/>
<path d="M271.54 236.63V287" stroke="#263238" stroke-linecap="round" stroke-linejoin="round"/>
<path d="M254.27 287V344.93" stroke="#263238" stroke-linecap="round" stroke-linejoin="round"/>
<path d="M298.12 288.48V340.38" stroke="#263238" stroke-linecap="round" stroke-linejoin="round"/>
<path d="M269.43 343.52V394.86" stroke="#263238" stroke-linecap="round" stroke-linejoin="round"/>
<path d="M136.43 234.01V347.02" stroke="#263238" stroke-linecap="round" stroke-linejoin="round"/>
<path d="M69.5498 240.28V288.48" stroke="#263238" stroke-linecap="round" stroke-linejoin="round"/>
<path d="M86.6699 288.21V344.3" stroke="#263238" stroke-linecap="round" stroke-linejoin="round"/>
<path d="M107.53 400.23V345.39" stroke="#263238" stroke-linecap="round" stroke-linejoin="round"/>
<path opacity="0.1" d="M46.2698 311.37H58.7998V318.78L46.2698 318.65V311.37Z" fill="black"/>
<path opacity="0.1" d="M243.56 310.07V318.4L265.14 317.3V310.42L243.56 310.07Z" fill="black"/>
<path opacity="0.1" d="M95.6599 367.78V376.28L120.23 378.75V369.19L95.6599 367.78Z" fill="black"/>
<path d="M202.65 170.88C200.21 169.56 199.1 170.66 198.22 169.56C197.34 168.46 200.65 165.56 194.02 162.7C194.02 162.7 193.57 156.51 184.51 156.29C175.45 156.07 177.88 162.48 175.44 164.03C173 165.58 172.35 163.15 169.91 164.69C167.47 166.23 168.59 169.34 166.6 169.78C164.61 170.22 161.96 167.78 159.53 169.34C157.1 170.9 157.1 172.21 155.99 172.21C154.88 172.21 152.67 171.33 151.35 172.21C150.03 173.09 148.47 174.21 148.47 174.21H204.41C204.41 174.21 205.07 172.21 202.65 170.88Z" stroke="#263238" stroke-linecap="round" stroke-linejoin="round"/>
<path d="M169.57 170C169.246 170.175 168.912 170.332 168.57 170.47" stroke="#263238" stroke-linecap="round" stroke-linejoin="round"/>
<path d="M181.52 159.65C180.969 159.893 180.484 160.264 180.105 160.732C179.726 161.2 179.464 161.751 179.34 162.34C178.94 164.34 178 165.72 176.92 165.85C175.84 165.98 171.79 165.59 171.12 167.07C170.938 167.506 170.81 167.963 170.74 168.43" stroke="#263238" stroke-linecap="round" stroke-linejoin="round"/>
</svg>
