<svg width="75" height="53" viewBox="0 0 75 53" fill="none" xmlns="http://www.w3.org/2000/svg">
<path d="M17.0724 49.6647C26.0455 50.135 33.7144 43.4825 34.1676 34.8353C34.3843 30.7002 32.9332 26.7117 30.0819 23.6043C27.2368 20.5039 23.3179 18.6279 19.0464 18.3215L18.9224 18.312C17.4256 18.1899 16.1218 19.27 16.0071 20.711C15.8924 22.152 17.0119 23.4142 18.5073 23.5303L18.6573 23.5418C24.5149 23.9583 29.0394 28.8974 28.7431 34.551C28.441 40.3158 23.3284 44.7508 17.3464 44.4373C11.3643 44.1238 6.74328 39.1787 7.0454 33.4139C7.42277 26.2133 9.54804 19.6621 13.3625 13.942C16.2134 9.66676 18.9995 7.47557 19.0516 7.43504C20.2188 6.5379 20.4101 4.89566 19.4776 3.7635C18.9722 3.15001 18.2402 2.81174 17.4891 2.77237C16.8515 2.73906 16.2 2.92091 15.6615 3.33229C15.5245 3.43707 12.268 5.95218 8.93339 10.8863C5.89342 15.3843 2.15733 22.8947 1.62094 33.1296C1.16776 41.7769 8.09935 49.1945 17.0724 49.6647Z" fill="#FFA000"/>
<path d="M55.7375 49.7018C64.7105 50.1721 72.3794 43.5197 72.8326 34.8723C73.0493 30.7373 71.5983 26.7488 68.7469 23.6411C65.9019 20.5407 61.983 18.6648 57.7115 18.3582L57.5874 18.3487C56.0939 18.2268 54.7867 19.3067 54.6722 20.7477C54.5575 22.1888 55.677 23.4509 57.1723 23.567L57.3223 23.5786C63.1799 23.9954 67.7045 28.9344 67.4082 34.588C67.1061 40.3529 61.9934 44.7879 56.0114 44.4744C50.0293 44.1609 45.4083 39.2157 45.7104 33.4509C46.0878 26.2504 48.2131 19.6991 52.0276 13.9792C54.8784 9.70387 57.6645 7.51268 57.7166 7.47215C58.884 6.57481 59.0752 4.93277 58.1427 3.80061C57.6373 3.18702 56.9053 2.84885 56.1541 2.80948C55.5166 2.77607 54.8651 2.95782 54.3264 3.36929C54.1895 3.47397 50.9328 5.98908 47.5983 10.9233C44.5585 15.4213 40.8224 22.9317 40.286 33.1666C39.8328 41.814 46.7644 49.2316 55.7375 49.7018Z" fill="#FFA000"/>
</svg>
