<svg width="72" height="50" viewBox="0 0 72 50" fill="none" xmlns="http://www.w3.org/2000/svg">
<g clip-path="url(#clip0_734_248)">
<path d="M69.389 0.0830269C49.1161 0.393793 22.5324 1.13012 2.26522 0.461485C1.43552 0.433638 0.959473 0.948815 0.820046 1.56368C0.802282 1.61597 0.778696 1.66529 0.768545 1.72054C0.636582 2.41184 0.58314 3.09766 0.58314 3.79873C0.0600646 11.1715 0.172621 25.4911 0.000949962 32.875C-0.00517049 33.145 0.0499136 33.3745 0.145303 33.5707C0.310556 34.1718 0.777949 34.7095 1.55345 34.8006C22.2088 37.2293 49.1882 35.4113 69.8621 34.2231C70.2305 34.2013 70.5299 34.0779 70.7625 33.8922C71.4501 33.8057 72.0505 33.3206 71.9968 32.4262C71.5092 24.431 71.4798 9.49472 71.4789 1.48829C71.4789 0.260629 70.2948 -0.206408 69.389 0.0830269ZM3.12447 31.8846C3.26584 24.8301 3.18806 10.8418 3.688 3.79888C3.688 3.72482 3.69113 3.65105 3.69173 3.57699C23.1521 4.15616 48.9143 3.49241 68.3778 3.18135C68.3854 10.2149 68.4452 24.1776 68.8334 31.2024C49.0221 32.3601 22.9191 34.0089 3.12447 31.8846Z" fill="#FFA000"/>
<path d="M42.3478 18.2757C40.8105 16.9965 38.9093 16.4294 36.969 16.0157C36.9043 14.3243 36.8389 12.6325 36.7664 10.941C37.6114 11.1346 38.421 11.4174 39.1085 11.7488C40.7905 12.5573 41.6974 9.71946 40.0377 8.92127C39.0527 8.44793 37.8733 8.07947 36.6371 7.8813C36.632 7.76376 36.6265 7.64638 36.6227 7.52991C36.5435 5.62513 33.6789 5.42467 33.7589 7.34912C33.764 7.48738 33.77 7.62519 33.7755 7.76285C31.9381 7.91697 30.2026 8.55479 29.0152 9.91093C26.8276 12.409 28.4492 16.7227 31.2789 17.7898C32.2158 18.1432 33.2054 18.3557 34.2063 18.5396C34.2826 20.8232 34.3297 23.108 34.3584 25.3936C33.0466 24.751 31.8528 23.8024 31.111 22.9598C29.8598 21.5409 27.7101 23.5184 28.9629 24.9408C30.2179 26.3652 32.2326 27.7856 34.3807 28.5505C34.3792 28.8556 34.3872 29.1589 34.3859 29.4631C34.3758 31.3822 37.2393 31.5733 37.2505 29.6436C37.2512 29.4687 37.2453 29.2937 37.2474 29.1187C38.7212 29.1505 40.1284 28.7347 41.2656 27.6403C43.696 25.3038 45.4272 20.8392 42.3478 18.2757ZM32.8452 15.1571C31.0208 14.6814 30.0193 12.325 32.0514 11.2619C32.6136 10.9677 33.2447 10.8064 33.9025 10.734C33.9686 12.3046 34.0302 13.8745 34.0913 15.4451C33.6687 15.3576 33.2518 15.2637 32.8452 15.1571ZM39.1589 25.5507C38.5807 25.9588 37.9191 26.1299 37.2272 26.1369C37.2033 23.7889 37.1562 21.441 37.0808 19.0948C38.2797 19.3823 39.437 19.7899 40.4731 20.5268C42.2012 21.7549 40.358 24.7012 39.1589 25.5507Z" fill="#FFA000"/>
<path d="M69.5232 35.0067C47.2251 36.8773 24.814 37.8401 2.47755 36.01C0.49943 35.8483 0.515553 38.8596 2.47755 39.0205C24.814 40.8499 47.2251 39.887 69.5232 38.0172C71.4844 37.8525 71.5001 34.8399 69.5232 35.0067Z" fill="#FFA000"/>
<path d="M69.5232 41.0067C47.2251 42.8773 24.814 43.8399 2.47755 42.01C0.49943 41.8483 0.515553 44.8596 2.47755 45.0205C24.814 46.8499 47.2251 45.887 69.5232 44.0172C71.4844 43.8525 71.5001 40.8399 69.5232 41.0067Z" fill="#FFA000"/>
<path d="M69.5232 45.0067C47.2251 46.8773 24.814 47.8399 2.47755 46.01C0.49943 45.8483 0.515553 48.8596 2.47755 49.0204C24.814 50.8499 47.2251 49.887 69.5232 48.0173C71.4844 47.8525 71.5001 44.8398 69.5232 45.0067Z" fill="#FFA000"/>
<path d="M12.9802 9.43283C12.9802 9.40815 12.9865 9.38533 12.9841 9.36079C12.9039 8.39591 12.5946 7.44914 11.7709 6.80222C10.9118 6.12677 9.78336 5.92635 8.68328 6.02278C8.59618 6.03006 8.51062 6.04589 8.42815 6.06586C7.41593 6.16429 6.48911 6.51535 5.73479 7.18353C5.63231 7.27411 5.5606 7.37111 5.50274 7.46925C5.43473 7.56126 5.37302 7.65969 5.32624 7.76725C4.99417 8.52101 4.91553 9.32142 5.09065 10.1136C5.0708 10.3331 5.11804 10.5579 5.24699 10.7572C5.75249 11.5435 6.46633 12.1318 7.27789 12.6398C7.33452 12.6753 7.39623 12.7021 7.4587 12.7253C7.54903 12.7735 7.64813 12.8159 7.76508 12.8449C9.05013 13.1629 10.3464 12.9872 11.4896 12.3617C11.6193 12.2907 11.7185 12.2059 11.8026 12.1161C11.8132 12.1088 11.8234 12.103 11.833 12.0954C12.6418 11.4405 13.0915 10.4492 12.9844 9.45394C12.9834 9.44624 12.981 9.44011 12.9802 9.43283ZM10.5235 10.092C10.522 10.0579 10.3836 10.3079 10.357 10.3438C10.4492 10.2191 10.2522 10.412 10.1707 10.4883C9.62918 10.7582 9.08336 10.8429 8.47939 10.71C8.11608 10.4807 7.7383 10.1739 7.45732 9.81385C7.45178 9.78061 7.45024 9.74723 7.44055 9.71385C7.34252 9.35566 7.38315 9.04782 7.50148 8.7066C7.88633 8.39448 8.34505 8.25725 8.88409 8.24812C8.95134 8.24655 9.01073 8.23614 9.07213 8.22744C9.46822 8.22059 9.82922 8.26724 10.1036 8.41217C10.2364 8.48178 10.311 8.57593 10.395 8.70261C10.4981 8.85938 10.5638 9.11444 10.5838 9.36079C10.5846 9.3665 10.5862 9.37192 10.5871 9.37706C10.5871 9.40316 10.5808 9.42741 10.5838 9.45337C10.5991 9.58846 10.5999 9.72041 10.5935 9.85536C10.5845 9.83425 10.5461 10.0019 10.5235 10.092Z" fill="#FFA000"/>
<path d="M66.9805 8.43281C66.9805 8.40813 66.9867 8.3853 66.9844 8.36077C66.9039 7.39588 66.5945 6.4491 65.7709 5.80218C64.9121 5.12673 63.7837 4.92644 62.6836 5.02273C62.5962 5.03001 62.5109 5.04599 62.4281 5.06581C61.4162 5.16439 60.4894 5.51531 59.7346 6.18349C59.6323 6.27407 59.5603 6.37107 59.5024 6.46922C59.4345 6.56123 59.3727 6.6598 59.3259 6.76736C58.9938 7.52112 58.9157 8.32154 59.0908 9.11354C59.0705 9.33308 59.1182 9.5579 59.2471 9.75718C59.7526 10.5436 60.4662 11.1318 61.2779 11.6399C61.3342 11.6754 61.3961 11.7022 61.4585 11.7253C61.5492 11.7735 61.6483 11.8159 61.7648 11.8449C63.0503 12.1629 64.3464 11.9872 65.4897 11.3617C65.6195 11.2907 65.7186 11.2059 65.8023 11.1161C65.813 11.1088 65.8234 11.1031 65.8326 11.0954C66.6414 10.4406 67.0915 9.4492 66.9844 8.45392C66.9838 8.44622 66.9813 8.44008 66.9805 8.43281ZM64.5238 9.092C64.5221 9.05805 64.384 9.30797 64.3573 9.34378C64.4497 9.21924 64.2525 9.41196 64.1705 9.48828C63.629 9.75818 63.0837 9.84291 62.4797 9.70996C62.1164 9.48072 61.7381 9.17388 61.4575 8.81383C61.4521 8.78045 61.4505 8.74721 61.4404 8.71383C61.3427 8.35563 61.3833 8.04779 61.5013 7.70657C61.8865 7.39445 62.3452 7.25708 62.8842 7.24809C62.9515 7.24666 63.0109 7.23611 63.0718 7.22741C63.4681 7.22056 63.8291 7.26721 64.1033 7.41214C64.2361 7.48161 64.3112 7.57576 64.3949 7.70258C64.498 7.85949 64.5637 8.11441 64.584 8.36063C64.5848 8.36647 64.5865 8.3719 64.5872 8.37689C64.5872 8.40299 64.5809 8.42724 64.584 8.45335C64.5989 8.58844 64.5997 8.72039 64.5934 8.85534C64.5848 8.83408 64.5464 9.00184 64.5238 9.092Z" fill="#FFA000"/>
</g>
<defs>
<clipPath id="clip0_734_248">
<rect width="72" height="50" fill="white"/>
</clipPath>
</defs>
</svg>
